<svg width="238" height="302" viewBox="0 0 238 302" fill="none" xmlns="http://www.w3.org/2000/svg">
<path d="M49.7559 288.35C49.7559 288.35 51.6479 288.28 51.5578 291.883C51.4677 295.487 51.5578 300.803 51.5578 300.803H49.7559V294.601L44.3502 300.828H25.7856C25.7856 300.828 26.7867 297.404 35.5209 297.494L49.7559 288.35Z" fill="#1F0C07"/>
<path d="M49.7558 288.35V283.715L42.5332 280.952L43.6144 288.35L34.73 297.55H38.8193C40.729 297.55 42.5696 296.835 43.9797 295.548C45.8918 293.816 48.4495 291.143 49.7558 288.35Z" fill="#E9B089"/>
<path d="M38.7089 175.015C38.7089 175.015 32.2021 190.797 35.7708 235.078C39.3396 279.36 40.4408 285.091 40.4408 285.091L52.2232 284.901L49.4503 175.015H38.7089Z" fill="#294286"/>
<path d="M77.8145 288.35C77.8145 288.35 75.9225 288.28 76.0126 291.883C76.1027 295.487 76.0126 300.803 76.0126 300.803H77.8145V294.601L83.2202 300.828H101.785C101.785 300.828 100.784 297.404 92.0546 297.494L77.8145 288.35Z" fill="#1F0C07"/>
<path d="M77.8154 288.35L73.1755 278.479L80.3982 275.716L83.9869 288.35L92.8663 297.549H88.782C86.8708 297.549 85.0285 296.835 83.6166 295.547C81.6795 293.815 79.1118 291.143 77.8154 288.35Z" fill="#E9B089"/>
<path d="M57.0381 175.015C57.0381 175.015 60.4917 184.255 66.6032 205.893C73.2402 229.417 86.1938 284.901 86.1938 284.901L73.6005 285.562L38.8289 183.509L42.1574 175L57.0381 175.015Z" fill="#294286"/>
<path d="M50.5362 217.205L44.0193 198.595" stroke="black" stroke-width="0.46" stroke-linecap="round" stroke-linejoin="round"/>
<path d="M66.0433 116.068C67.2528 119.186 67.5733 122.579 66.9693 125.868C65.9682 131.724 72.425 131.154 71.6542 136.83C71.6542 136.83 53.3699 142.261 36.4771 131.249C36.4771 131.249 35.3209 126.244 38.8496 125.022C43.7898 123.341 45.0411 118.23 45.0411 118.23L66.0433 116.068Z" fill="black"/>
<path d="M66.3125 120.979C67.0434 115.413 62.7751 110.262 56.779 109.475C50.7829 108.687 45.3296 112.562 44.5986 118.128C43.8677 123.695 48.1359 128.845 54.1321 129.633C60.1282 130.42 65.5815 126.546 66.3125 120.979Z" fill="black"/>
<path d="M56.9235 128.051L56.6983 144.758L48.6448 143.687L51.1274 129.022L56.9235 128.051Z" fill="#E9B089"/>
<path d="M49.6802 137.561L55.9418 132.921L50.9715 130.058L49.6802 137.561Z" fill="#D7896D"/>
<path d="M48.2489 126.925C48.2914 125.88 48.1333 124.837 47.7834 123.851C47.2829 122.48 46.432 121.119 44.8052 121.634C42.0273 122.52 44.0344 127.11 46.6622 127.816C47.433 128.021 48.2289 127.575 48.2489 126.925Z" fill="#D7896D"/>
<path d="M58.6699 112.129C56.9 111.355 54.972 111.012 53.044 111.128C50.4412 111.313 46.9826 112.464 45.9515 117.029C44.2247 124.642 44.6101 129.692 47.9536 132.295C50.2861 134.117 52.8888 134.297 56.5176 132.796C57.8691 132.24 59.8762 129.793 60.4167 128.381L61.9734 124.377C61.9734 124.377 67.1338 115.728 58.6699 112.129Z" fill="#E9B089"/>
<path d="M49.5405 123.726L48.3943 125.338L49.2602 125.898" stroke="black" stroke-width="0.45" stroke-linecap="round" stroke-linejoin="round"/>
<path d="M49.3452 116.834C49.3452 116.834 49.5605 117.635 48.3442 117.63C47.6673 117.594 46.9885 117.622 46.317 117.715C46.1745 117.746 46.026 117.734 45.8899 117.682C45.7537 117.629 45.636 117.538 45.5512 117.419C45.4951 117.334 45.4713 117.232 45.4841 117.131C45.497 117.03 45.5457 116.937 45.6213 116.869C46.2047 116.36 46.9597 116.091 47.7335 116.118C49.17 116.113 49.3452 116.834 49.3452 116.834Z" fill="black"/>
<path d="M52.7541 117.049C52.7541 117.049 52.2536 117.76 53.9053 118.12C55.0635 118.408 56.2007 118.774 57.3089 119.216C57.4875 119.29 57.6802 119.324 57.8732 119.314C58.0662 119.305 58.2547 119.252 58.4251 119.161C58.4726 119.135 58.5129 119.097 58.5425 119.051C58.5721 119.005 58.5901 118.953 58.595 118.899C58.6 118.845 58.5916 118.79 58.5707 118.74C58.5499 118.69 58.5171 118.645 58.4752 118.611C57.5142 117.767 56.3665 117.163 55.1266 116.849C53.1796 116.413 52.7541 117.049 52.7541 117.049Z" fill="black"/>
<path d="M51.6775 122.42C51.6775 122.42 52.8788 119.477 56.5927 122.24C56.5927 122.255 54.5755 124.812 51.6775 122.42Z" fill="white"/>
<path d="M52.6937 122.015C52.6387 122.257 52.6564 122.511 52.7446 122.744C52.8328 122.976 52.9876 123.178 53.1896 123.323C53.3917 123.468 53.6321 123.551 53.8808 123.56C54.1295 123.57 54.3754 123.506 54.5879 123.376C54.8004 123.246 54.97 123.057 55.0755 122.832C55.181 122.606 55.2178 122.355 55.1813 122.109C55.1448 121.863 55.0365 121.633 54.87 121.448C54.7036 121.263 54.4863 121.131 54.2454 121.069C53.9142 120.989 53.5648 121.043 53.2739 121.221C52.983 121.398 52.7744 121.684 52.6937 122.015Z" fill="black"/>
<path d="M56.5332 122.32C56.1959 122.011 55.8083 121.762 55.387 121.584C54.9717 121.396 54.5289 121.276 54.0756 121.229C53.633 121.193 53.1885 121.27 52.7842 121.454C52.3981 121.636 52.0996 121.964 51.9533 122.365C51.9374 122.41 51.9045 122.448 51.8615 122.469C51.8185 122.49 51.7689 122.494 51.7231 122.48C51.7003 122.473 51.6792 122.461 51.661 122.445C51.6428 122.43 51.6279 122.411 51.6172 122.389C51.6064 122.368 51.6001 122.344 51.5985 122.32C51.597 122.296 51.6002 122.272 51.608 122.25C51.7967 121.763 52.1712 121.37 52.6491 121.159C53.1048 120.964 53.6042 120.895 54.0956 120.958C54.5753 121.019 55.0419 121.158 55.4771 121.369C55.912 121.571 56.3097 121.845 56.6533 122.18C56.6698 122.197 56.6791 122.221 56.6791 122.245C56.6791 122.269 56.6698 122.292 56.6533 122.31C56.6371 122.324 56.6166 122.333 56.5949 122.335C56.5732 122.337 56.5516 122.331 56.5332 122.32Z" fill="black"/>
<path d="M48.8446 122.02C48.8446 122.02 48.0638 118.836 45.5762 120.628C45.5762 120.628 46.4721 123.666 48.8446 122.02Z" fill="white"/>
<path d="M48.0993 121.254C48.0626 121.43 47.9772 121.593 47.8528 121.723C47.7284 121.854 47.57 121.947 47.3955 121.992C47.2209 122.037 47.0373 122.033 46.8652 121.979C46.6931 121.925 46.5396 121.824 46.4218 121.687C46.3041 121.551 46.227 121.384 46.1991 121.206C46.1712 121.028 46.1938 120.846 46.2641 120.68C46.3345 120.514 46.4499 120.371 46.5973 120.267C46.7447 120.163 46.9182 120.103 47.0982 120.092C47.3848 120.114 47.651 120.248 47.8386 120.466C48.0262 120.684 48.12 120.967 48.0993 121.254Z" fill="black"/>
<path d="M45.5207 120.578C45.7279 120.332 45.9977 120.147 46.3015 120.042C46.4634 119.992 46.6325 119.968 46.802 119.972C46.9727 119.969 47.1424 119.998 47.3026 120.057C47.51 120.111 47.7076 120.197 47.8882 120.313C48.0748 120.425 48.2436 120.565 48.3887 120.728C48.5305 120.879 48.6533 121.047 48.7541 121.228C48.8601 121.416 48.9425 121.616 48.9994 121.824C49.0084 121.844 49.013 121.866 49.0128 121.889C49.0126 121.911 49.0077 121.933 48.9984 121.953C48.989 121.973 48.9754 121.991 48.9586 122.005C48.9417 122.02 48.922 122.03 48.9006 122.036C48.8793 122.043 48.8569 122.044 48.8349 122.041C48.813 122.038 48.792 122.03 48.7734 122.018C48.7547 122.006 48.7389 121.99 48.7269 121.971C48.715 121.952 48.7072 121.931 48.704 121.909C48.6109 121.543 48.4402 121.202 48.2035 120.908C48.0834 120.759 47.9417 120.63 47.7831 120.523C47.629 120.416 47.4605 120.332 47.2825 120.272C47.0197 120.173 46.732 120.161 46.4617 120.237C46.1832 120.318 45.9332 120.476 45.7409 120.693C45.7255 120.706 45.706 120.713 45.6859 120.713C45.6657 120.713 45.6462 120.706 45.6308 120.693C45.6155 120.708 45.5951 120.715 45.574 120.715C45.5529 120.715 45.5328 120.706 45.5182 120.69C45.5036 120.675 45.4956 120.655 45.4961 120.634C45.4966 120.612 45.5054 120.592 45.5207 120.578Z" fill="black"/>
<path d="M47.6528 127L52.4929 127.36C52.3119 127.86 51.9643 128.282 51.5084 128.555C51.0526 128.829 50.5165 128.937 49.9903 128.861C49.4636 128.807 48.9635 128.602 48.5493 128.272C48.135 127.942 47.824 127.501 47.6528 127Z" fill="white"/>
<path opacity="0.22" d="M55.4066 119.362L50.8318 123.791C50.8318 123.791 51.5976 126.129 53.4245 126.189L58.0094 121.884C58.0094 121.884 57.3587 119.547 55.4066 119.362Z" fill="white"/>
<path opacity="0.22" d="M47.0679 117.955L43.0637 122.46C43.0637 122.46 43.6644 124.767 45.221 124.787L49.2252 120.398C49.2252 120.398 48.7247 118.095 47.0679 117.955Z" fill="white"/>
<path d="M50.7969 122.2C50.6761 122.92 50.7718 123.661 51.0719 124.327C51.3719 124.993 51.8629 125.556 52.4826 125.943C53.1024 126.33 53.823 126.525 54.5535 126.502C55.2839 126.48 55.9912 126.241 56.586 125.817C57.1808 125.392 57.6363 124.801 57.8949 124.117C58.1535 123.434 58.2035 122.689 58.0387 121.977C57.8739 121.265 57.5016 120.618 56.969 120.118C56.4363 119.617 55.7672 119.286 55.0464 119.166C54.5681 119.085 54.0785 119.1 53.6058 119.209C53.133 119.317 52.6864 119.518 52.2916 119.8C51.8967 120.082 51.5614 120.439 51.3049 120.851C51.0484 121.263 50.8758 121.721 50.7969 122.2V122.2Z" stroke="#C0653E" stroke-width="0.72" stroke-miterlimit="10"/>
<path d="M43.0693 120.883C42.739 122.885 43.8501 124.762 45.572 125.052C47.2938 125.343 48.9305 123.951 49.2609 121.939C49.5912 119.927 48.48 118.06 46.7582 117.77C45.0364 117.479 43.4047 118.871 43.0693 120.883Z" stroke="#C0653E" stroke-width="0.72" stroke-miterlimit="10"/>
<path d="M50.797 122.2C50.5773 122.037 50.3221 121.928 50.0524 121.883C49.7827 121.838 49.5062 121.857 49.2454 121.939" stroke="#C0653E" stroke-width="0.72" stroke-miterlimit="10"/>
<path d="M60.4368 125.668L58.0293 123.726" stroke="#C0653E" stroke-width="0.72" stroke-miterlimit="10"/>
<path d="M60.3268 126.044C60.3268 125.343 58.3247 119.677 61.2878 112.86C61.2878 112.86 63.9957 112.539 64.326 117.485C64.8666 125.423 60.3268 126.044 60.3268 126.044Z" fill="black"/>
<path d="M58.8853 128.361C59.2545 127.325 59.8166 126.369 60.542 125.543C61.5431 124.397 62.9295 123.401 64.316 124.542C66.6835 126.484 62.9345 130.193 60.0915 129.853C59.2556 129.752 58.655 129.007 58.8853 128.351V128.361Z" fill="#E9B089"/>
<path d="M63.3299 126.524C61.4128 125.563 60.0364 127.675 60.0364 127.675" stroke="black" stroke-width="0.45" stroke-linecap="round" stroke-linejoin="round"/>
<path d="M62.0896 113.435C62.0896 113.435 58.3757 117.044 45.0166 114.892C45.0166 114.892 47.6844 109.821 54.6017 109.556C61.519 109.291 62.0896 113.435 62.0896 113.435Z" fill="black"/>
<path d="M54.2304 142.551C54.2304 142.551 50.8018 154.188 26.351 172.117L19.9893 163.813L41.3518 140.629L54.2304 142.551Z" fill="#BE5640"/>
<path d="M7.05591 146.691L11.5607 144.368L18.2377 154.063C16.656 155.115 14.5688 156.271 12.9722 157.317L7.05591 146.691Z" fill="#E9B089"/>
<path d="M12.3062 143.832L12.5965 142.781C12.9944 141.367 13.051 139.878 12.7616 138.437L12.2611 135.934C12.2317 135.794 12.1725 135.661 12.0875 135.546C12.0025 135.43 11.8936 135.335 11.7683 135.265C11.643 135.195 11.5042 135.153 11.3612 135.141C11.2183 135.13 11.0745 135.149 10.9397 135.198C10.7033 135.288 10.4992 135.447 10.3538 135.654C10.2084 135.861 10.1283 136.107 10.1239 136.36L10.0638 139.092L5.9945 131.73C5.94678 131.634 5.8795 131.55 5.79704 131.482C5.71458 131.414 5.61878 131.365 5.51587 131.336C5.41296 131.308 5.30523 131.302 5.19971 131.318C5.09418 131.334 4.99321 131.372 4.90335 131.429L4.64808 131.605C4.5018 131.704 4.39479 131.852 4.34546 132.021C4.29613 132.191 4.30756 132.373 4.3778 132.536L7.2208 138.202L3.0514 132.145C2.99562 132.052 2.92081 131.972 2.8319 131.911C2.74298 131.849 2.64198 131.807 2.53556 131.787C2.42914 131.767 2.31972 131.77 2.21451 131.795C2.1093 131.821 2.0107 131.869 1.92521 131.935L1.74502 132.075C1.59593 132.19 1.49451 132.355 1.46032 132.54C1.42612 132.725 1.46157 132.916 1.55982 133.076L4.90335 138.657L1.39965 134.998C1.32314 134.912 1.22822 134.844 1.12195 134.8C1.01568 134.756 0.900799 134.736 0.785844 134.742C0.67089 134.749 0.558825 134.781 0.457984 134.836C0.357143 134.892 0.270122 134.969 0.203393 135.063L0.148335 135.143C0.0519624 135.275 0 135.433 0 135.596C0 135.759 0.0519624 135.918 0.148335 136.049L3.50688 140.109L1.33959 138.437C1.24892 138.344 1.13632 138.277 1.01231 138.24C0.8883 138.203 0.756923 138.197 0.630453 138.225C0.503982 138.252 0.386544 138.312 0.289104 138.397C0.191664 138.482 0.117402 138.59 0.0732546 138.712C0.031896 138.834 0.021681 138.964 0.0435373 139.091C0.0653936 139.218 0.118626 139.337 0.198387 139.438L8.34698 148.658L10.5743 146.63C11.4008 145.877 12.0006 144.908 12.3062 143.832Z" fill="#E9B089"/>
<path d="M10.0691 139.092C9.53995 139.608 9.13109 140.235 8.87155 140.927C8.61202 141.619 8.5082 142.36 8.56747 143.097" stroke="black" stroke-width="0.57" stroke-linecap="round" stroke-linejoin="round"/>
<path d="M28.7389 165.465L14.0284 146.205L8.16724 151.105L18.2729 169.58C19.9897 172.553 22.5424 174.059 25.3754 172.723C27.9281 171.517 29.9302 168.038 28.7389 165.465Z" fill="#BE5640"/>
<path d="M24.0781 159.374L27.2465 163.038" stroke="black" stroke-width="0.46" stroke-linecap="round" stroke-linejoin="round"/>
<path d="M41.5776 143.867L51.5881 150.875L50.9725 185.501L37.1729 183.169C37.1729 183.169 30.651 153.773 41.5776 143.867Z" fill="white"/>
<path d="M36.1016 183.074L49.7359 185.722L49.4256 182.283L36.1016 180.011V183.074Z" fill="black"/>
<path d="M56.6526 150.094C56.6526 150.094 40.1352 155.63 40.916 145.504L48.7042 139.498L53.9247 142.451L56.6526 144.724L59.3805 149.283L56.6526 150.094Z" fill="#E9B089"/>
<path d="M49.335 139.878C44.3966 144.087 40.5543 149.433 38.1382 155.455C35.9659 160.926 37.2973 171.887 37.6376 179.205C37.978 186.523 38.4985 200.502 38.4985 200.502L33.1129 197.499C33.1129 197.499 32.9927 165.41 33.7735 161.196C34.5544 156.981 38.2783 140.719 43.679 138.967C43.679 138.967 45.5159 138.422 48.6843 139.553L49.335 139.878Z" fill="#BE5640"/>
<path d="M33.4033 166.667C33.4033 166.667 32.8177 156.441 36.1011 151.315" stroke="black" stroke-width="0.46" stroke-linecap="round" stroke-linejoin="round"/>
<path d="M59.8707 144.648C59.8707 144.648 57.4282 142.536 53.9094 145.254C50.3907 147.972 45.946 157.622 45.946 168.784C45.946 179.946 49.2645 201.218 49.2645 201.218C49.2645 201.218 61.3723 205.878 69.8212 199.842L57.0728 178.319L63.2543 161.141L59.8707 144.648Z" fill="#BE5640"/>
<path d="M58.9152 144.123C58.9152 144.123 67.8596 146.275 84.0317 171.917L75.3025 177.683L58.4097 158.573L58.9152 144.123Z" fill="#BE5640"/>
<path d="M62.3588 163.038L58.4097 158.573" stroke="black" stroke-width="0.46" stroke-linecap="round" stroke-linejoin="round"/>
<path d="M47.9986 175.976L53.8197 174.66L53.6295 173.364C53.5973 173.135 53.638 172.902 53.7459 172.698C53.8537 172.494 54.0232 172.33 54.2302 172.228C54.4402 172.128 54.6785 172.104 54.9041 172.16C55.1297 172.217 55.3286 172.351 55.4665 172.538L59.3856 177.979L62.3588 182.168C58.9452 183.875 55.7518 183.595 54.8508 182.844L50.3211 183.184C50.1082 183.217 49.8908 183.166 49.7157 183.04C49.5406 182.915 49.4219 182.726 49.3851 182.513C49.325 182.193 49.3851 181.718 50.3311 181.512L49.4001 181.723C49.2889 181.74 49.1753 181.736 49.0659 181.709C48.9565 181.683 48.8534 181.635 48.7626 181.568C48.6718 181.502 48.5952 181.418 48.537 181.322C48.4789 181.225 48.4405 181.118 48.4241 181.007C48.344 180.581 48.6993 180.151 49.2649 179.956L48.5742 180.041C48.4526 180.058 48.3287 180.049 48.2107 180.015C48.0926 179.981 47.983 179.923 47.8887 179.844C47.7944 179.766 47.7177 179.668 47.6633 179.558C47.609 179.448 47.5783 179.328 47.5732 179.205C47.5596 178.975 47.6289 178.747 47.7684 178.564C47.9079 178.38 48.1085 178.252 48.334 178.204L49.365 177.974H48.2238C48.0922 177.985 47.9596 177.968 47.8345 177.926C47.7095 177.883 47.5947 177.815 47.4973 177.725C47.3999 177.636 47.3222 177.527 47.2689 177.406C47.2156 177.285 47.188 177.155 47.1877 177.023C47.1825 176.782 47.2602 176.546 47.4079 176.356C47.5555 176.165 47.764 176.032 47.9986 175.976Z" fill="#E9B089"/>
<path d="M59.3857 177.988L69.0459 175.411L70.6326 181.217L60.6921 182.869L59.3857 177.988Z" fill="#E9B089"/>
<path d="M77.9811 169.995L61.0532 175.786L64.637 183.444L80.9542 179.795C81.6719 179.63 82.3456 179.312 82.9296 178.863C83.5136 178.415 83.9943 177.845 84.3389 177.195C84.6836 176.544 84.8843 175.826 84.9272 175.091C84.9702 174.356 84.8545 173.62 84.5881 172.933C84.0956 171.672 83.1255 170.656 81.8885 170.106C80.6515 169.556 79.2474 169.516 77.9811 169.995Z" fill="#BE5640"/>
<path d="M70.6328 172.503L76.2888 170.571" stroke="black" stroke-width="0.46" stroke-linecap="round" stroke-linejoin="round"/>
<path d="M149.396 295.733L144.551 298.39C144.289 298.54 144.082 298.771 143.963 299.048C143.844 299.325 143.818 299.634 143.891 299.927C144.016 300.428 144.426 300.783 145.502 300.803C147.89 300.853 161.019 299.091 161.019 299.091V300.448H165.954C165.954 300.448 166.264 293.44 164.768 292.529L149.396 295.733Z" fill="black"/>
<path d="M158.431 291.393L149.396 295.733C149.396 295.733 152.79 298.12 156.479 296.529C160.168 294.937 164.783 292.525 164.783 292.525L164.112 290.703L158.431 291.393Z" fill="#C67B5B"/>
<path d="M164.111 290.717L164.787 270.601L157.859 271.022V293.48L164.111 290.717Z" fill="#C67B5B"/>
<path d="M209.455 295.733L214.285 298.391C214.548 298.539 214.756 298.77 214.876 299.047C214.996 299.325 215.022 299.634 214.95 299.927C214.825 300.428 214.415 300.783 213.339 300.803C210.951 300.853 197.822 299.091 197.822 299.091V300.508L192.957 300.448C192.957 300.448 192.577 293.441 194.068 292.54L209.455 295.733Z" fill="black"/>
<path d="M200.424 291.393L209.434 295.733C209.434 295.733 206.045 298.12 202.356 296.529C198.667 294.937 194.047 292.525 194.047 292.525L194.723 290.703L200.424 291.393Z" fill="#C67B5B"/>
<path d="M194.744 290.717L189.679 270.601L196.606 271.022L201.551 293.941L194.744 290.717Z" fill="#C67B5B"/>
<path d="M162.144 173.563C162.144 173.563 152.604 189.08 152.839 202.824C153.074 216.569 156.443 284.626 156.443 284.626H167.87L170.167 198.58L171.544 198.5L189.378 284.661L200.109 283.63L188.802 203.615C188.046 198.668 186.701 193.829 184.798 189.2C183.151 185.246 181.169 178.594 178.351 175.11L162.144 173.563Z" fill="#294286"/>
<path d="M170.233 198.635L176.62 198.25" stroke="black" stroke-width="0.46" stroke-linecap="round" stroke-linejoin="round"/>
<path d="M146.132 157.832L137.663 170.47C134.705 175.105 141.782 179.88 144.986 175.436L159.401 156.195L146.132 157.832Z" fill="#C67B5B"/>
<path d="M158.45 143.092C153.105 141.335 144.961 155.104 141.743 160.11L154.646 168.619C157.064 164.665 172.981 148.798 158.45 143.092Z" fill="#CA98BE"/>
<path d="M179.719 142.941C179.719 142.941 188.968 143.547 189.344 157.151L182.992 158.608L179.719 142.941Z" fill="#CA98BE"/>
<path d="M157.109 142.881C167.45 140.979 173.166 140.984 180.929 143.182C189.714 145.684 182.276 169.394 180.214 178.394H159.632L152.705 151.636C153.651 149.493 153.876 143.082 157.109 142.881Z" fill="#CA98BE"/>
<path d="M156.709 167.117L154.251 156.716" stroke="black" stroke-width="0.44" stroke-linecap="round" stroke-linejoin="round"/>
<path d="M183.242 163.558L184.724 153.157" stroke="black" stroke-width="0.44" stroke-linecap="round" stroke-linejoin="round"/>
<path d="M172.329 145.84L165.898 141.865L166.238 139.663H165.177C164.958 139.665 164.742 139.71 164.541 139.796C164.34 139.882 164.158 140.007 164.006 140.164L162.069 142.071L166.498 148.708C166.607 148.872 166.75 149.012 166.916 149.117C167.083 149.223 167.27 149.292 167.466 149.32C167.661 149.348 167.86 149.334 168.049 149.279C168.239 149.225 168.415 149.13 168.565 149.003L172.329 145.84Z" fill="white"/>
<path d="M174.262 139.663H175.083C175.355 139.662 175.624 139.729 175.864 139.858C176.104 139.986 176.309 140.172 176.46 140.399L177.796 142.401L177.215 148.157C177.199 148.289 177.148 148.414 177.068 148.52C176.988 148.625 176.881 148.708 176.758 148.759C176.635 148.809 176.501 148.827 176.37 148.809C176.238 148.791 176.114 148.739 176.009 148.658L172.355 145.84L174.412 142.396L174.262 139.663Z" fill="white"/>
<path d="M172.966 148.582C172.966 148.708 172.929 148.831 172.859 148.936C172.789 149.04 172.69 149.122 172.574 149.17C172.458 149.218 172.33 149.23 172.206 149.206C172.083 149.181 171.97 149.121 171.881 149.032C171.792 148.943 171.732 148.83 171.707 148.706C171.683 148.583 171.695 148.455 171.743 148.339C171.791 148.223 171.873 148.124 171.977 148.054C172.082 147.984 172.205 147.947 172.33 147.947C172.499 147.947 172.661 148.014 172.78 148.133C172.899 148.252 172.966 148.414 172.966 148.582Z" fill="white"/>
<path d="M173.111 151.12C173.111 151.247 173.073 151.371 173.002 151.477C172.932 151.582 172.831 151.664 172.714 151.713C172.597 151.761 172.468 151.773 172.343 151.748C172.219 151.723 172.105 151.662 172.015 151.571C171.926 151.481 171.865 151.367 171.841 151.242C171.817 151.117 171.83 150.989 171.88 150.872C171.929 150.755 172.012 150.655 172.118 150.585C172.224 150.515 172.348 150.479 172.475 150.48C172.559 150.48 172.642 150.496 172.719 150.528C172.797 150.561 172.867 150.608 172.926 150.667C172.985 150.727 173.032 150.798 173.064 150.875C173.095 150.953 173.111 151.036 173.111 151.12Z" fill="white"/>
<path d="M166.715 163.283C166.715 163.283 170.303 156.921 179.728 160.68L176.084 168.469L167.851 168.188L166.715 163.283Z" fill="#C67B5B"/>
<path d="M166.714 163.283L141.423 167.622L142.899 177.052L167.835 168.163L166.714 163.283Z" fill="#C67B5B"/>
<path d="M150.533 166.056L144.351 167.117" stroke="black" stroke-width="0.44" stroke-linecap="round" stroke-linejoin="round"/>
<path d="M168.512 183.509L166.795 181.602L177.211 157.147C177.211 157.147 195.901 153.998 203.544 156.591L168.512 183.509Z" fill="white"/>
<path d="M203.542 156.591L199.478 157.146L187.38 180.876C187.38 180.876 190.884 180.972 192.461 177.923L203.542 156.591Z" fill="black"/>
<path d="M199.478 157.146L178.671 158.993L168.51 183.509L187.38 180.877L199.478 157.146Z" fill="#212E38"/>
<path d="M192.482 162.902L180.86 163.933L179.719 166.721L191.035 165.65L192.482 162.902Z" fill="white"/>
<path d="M203.543 156.591L201.095 145.324H198.693L194.043 156.01L203.543 156.591Z" fill="white"/>
<path d="M194.763 173.474C194.763 173.474 197.531 174.15 199.874 170.571C202.216 166.992 199.949 165.095 199.949 165.095L194.073 160.966C193.955 160.881 193.811 160.84 193.666 160.851C193.522 160.862 193.385 160.924 193.282 161.026C193.221 161.084 193.173 161.154 193.14 161.231C193.107 161.309 193.09 161.392 193.09 161.476C193.09 161.56 193.107 161.644 193.14 161.721C193.173 161.798 193.221 161.868 193.282 161.927L196.785 165.275L191.515 161.807C191.42 161.744 191.313 161.701 191.2 161.68C191.088 161.66 190.973 161.662 190.862 161.687C190.75 161.713 190.645 161.76 190.553 161.827C190.46 161.894 190.382 161.979 190.324 162.077C190.219 162.254 190.182 162.463 190.22 162.666C190.257 162.868 190.367 163.05 190.529 163.178L195.414 167.002L191.024 164.725C190.941 164.682 190.85 164.656 190.757 164.649C190.663 164.641 190.569 164.653 190.48 164.682C190.391 164.711 190.309 164.758 190.238 164.819C190.168 164.881 190.11 164.956 190.068 165.04C189.996 165.189 189.978 165.359 190.018 165.521C190.058 165.682 190.154 165.823 190.289 165.921L194.753 169.174L190.944 167.357C190.768 167.272 190.565 167.258 190.378 167.319C190.192 167.38 190.036 167.51 189.943 167.683C189.859 167.844 189.835 168.03 189.877 168.208C189.918 168.385 190.022 168.541 190.169 168.649L195.304 172.403L194.763 173.474Z" fill="#C67B5B"/>
<path d="M176.815 126.98C176.899 125.95 177.181 124.945 177.646 124.022C178.291 122.735 179.292 121.519 180.829 122.205C183.442 123.401 180.929 127.665 178.266 128.041C177.485 128.151 176.765 127.62 176.815 126.98Z" fill="#A4563A"/>
<path d="M180.54 128.036C180.927 127.944 181.167 127.555 181.074 127.168C180.982 126.78 180.594 126.541 180.207 126.633C179.819 126.725 179.58 127.114 179.672 127.501C179.764 127.888 180.153 128.128 180.54 128.036Z" fill="white"/>
<path d="M165.515 133.705C168.091 131.129 168.091 126.952 165.515 124.375C162.938 121.799 158.761 121.799 156.185 124.375C153.609 126.952 153.609 131.129 156.185 133.705C158.761 136.281 162.938 136.281 165.515 133.705Z" fill="black"/>
<path d="M162.469 111.939C162.469 111.939 160.517 110.888 158.465 113.816C156.413 116.744 156.738 122.88 160.903 123.997L162.469 111.939Z" fill="black"/>
<path d="M162.47 111.939C162.47 111.939 163.571 106.213 172.195 107.404C180.819 108.595 186.5 112.264 180.519 120.418L162.47 111.939Z" fill="black"/>
<path d="M180.373 118.846C180.448 124.402 176.309 128.952 170.328 129.037C164.346 129.122 159.436 124.687 159.356 119.136C159.276 113.586 164.071 109.011 170.042 108.906C176.014 108.801 180.293 113.295 180.373 118.846Z" fill="black"/>
<path d="M168.181 127.04L165.898 141.865L172.33 145.839L174.387 142.396L173.746 128.681L168.181 127.04Z" fill="#C67B5B"/>
<path d="M174.147 137.225L168.561 131.93L173.777 129.717L174.147 137.225Z" fill="#A4563A"/>
<path d="M168.365 111.218C170.194 110.674 172.125 110.571 174.001 110.918C176.529 111.418 179.783 112.95 180.253 117.55C181.034 125.223 180.188 130.979 176.424 132.771C173.531 134.147 171.419 133.662 168.025 131.77C166.769 131.064 165.522 128.441 165.172 126.975L163.671 122.89C163.671 122.89 159.636 113.736 168.365 111.218Z" fill="#C67B5B"/>
<path d="M175.944 124.747L176.995 126.684L176.089 127.42" stroke="black" stroke-width="0.44" stroke-linecap="round" stroke-linejoin="round"/>
<path d="M176.95 118.08C176.95 118.08 176.645 118.836 177.826 118.976C178.494 119.022 179.156 119.131 179.803 119.301C179.939 119.347 180.086 119.353 180.226 119.317C180.365 119.282 180.491 119.207 180.589 119.101C180.656 119.026 180.693 118.929 180.693 118.828C180.693 118.728 180.656 118.631 180.589 118.556C180.082 117.982 179.374 117.624 178.612 117.555C177.205 117.414 176.95 118.08 176.95 118.08Z" fill="black"/>
<path d="M173.391 118.06C173.391 118.06 173.797 118.811 172.14 118.971C170.97 119.115 169.811 119.337 168.671 119.637C168.487 119.688 168.294 119.699 168.105 119.667C167.916 119.635 167.737 119.561 167.58 119.452C167.537 119.421 167.501 119.38 167.477 119.332C167.453 119.285 167.44 119.232 167.44 119.179C167.44 119.126 167.453 119.073 167.477 119.026C167.501 118.978 167.537 118.937 167.58 118.906C168.626 118.19 169.827 117.734 171.084 117.575C173.081 117.375 173.391 118.06 173.391 118.06Z" fill="black"/>
<path d="M173.806 123.671C173.806 123.671 172.98 120.668 169.011 122.91C169.011 122.92 170.683 125.653 173.806 123.671Z" fill="white"/>
<path d="M172.866 123.136C172.892 123.38 172.844 123.627 172.73 123.845C172.616 124.062 172.441 124.242 172.226 124.361C172.01 124.479 171.765 124.532 171.52 124.512C171.275 124.492 171.041 124.4 170.848 124.248C170.654 124.096 170.51 123.89 170.433 123.657C170.356 123.423 170.35 123.172 170.415 122.935C170.479 122.698 170.613 122.485 170.798 122.323C170.983 122.161 171.211 122.057 171.455 122.024C171.789 121.985 172.126 122.08 172.39 122.288C172.655 122.496 172.826 122.801 172.866 123.136Z" fill="black"/>
<path d="M168.956 122.84C169.333 122.552 169.756 122.33 170.208 122.185C170.659 122.03 171.132 121.948 171.609 121.944C172.1 121.943 172.583 122.069 173.011 122.31C173.453 122.578 173.771 123.009 173.896 123.511C173.908 123.557 173.9 123.607 173.875 123.647C173.85 123.688 173.81 123.717 173.764 123.729C173.717 123.74 173.668 123.732 173.627 123.708C173.587 123.683 173.557 123.643 173.546 123.596V123.566C173.449 123.155 173.198 122.797 172.845 122.565C172.471 122.335 172.043 122.207 171.604 122.195C171.155 122.187 170.708 122.25 170.278 122.38C169.847 122.512 169.441 122.715 169.076 122.98C169.06 122.996 169.039 123.005 169.016 123.005C168.994 123.005 168.972 122.996 168.956 122.98C168.945 122.973 168.936 122.962 168.929 122.95C168.923 122.938 168.919 122.924 168.919 122.91C168.919 122.897 168.923 122.883 168.929 122.871C168.936 122.859 168.945 122.848 168.956 122.84Z" fill="black"/>
<path d="M176.82 123.601C176.82 123.601 177.966 120.598 180.189 122.6C180.189 122.625 178.952 125.498 176.82 123.601Z" fill="white"/>
<path d="M177.64 122.92C177.651 123.101 177.712 123.274 177.817 123.421C177.923 123.568 178.067 123.682 178.235 123.75C178.402 123.818 178.585 123.838 178.763 123.806C178.941 123.774 179.106 123.692 179.239 123.571C179.373 123.449 179.469 123.292 179.517 123.117C179.565 122.943 179.562 122.759 179.509 122.586C179.457 122.413 179.356 122.259 179.219 122.141C179.083 122.023 178.915 121.946 178.737 121.919C178.46 121.912 178.191 122.013 177.987 122.199C177.783 122.386 177.658 122.644 177.64 122.92Z" fill="black"/>
<path d="M180.128 122.67C179.965 122.434 179.74 122.249 179.477 122.134C179.218 122.03 178.933 122.009 178.661 122.074C178.476 122.107 178.297 122.168 178.131 122.255C177.962 122.34 177.807 122.45 177.67 122.58C177.399 122.844 177.187 123.163 177.05 123.516C177.043 123.535 177.032 123.552 177.019 123.567C177.005 123.582 176.989 123.594 176.971 123.602C176.953 123.611 176.933 123.615 176.913 123.616C176.893 123.617 176.873 123.613 176.854 123.606C176.835 123.599 176.818 123.588 176.803 123.574C176.788 123.56 176.776 123.543 176.768 123.525C176.759 123.506 176.755 123.486 176.754 123.466C176.754 123.445 176.757 123.425 176.764 123.406C176.847 123.209 176.953 123.023 177.08 122.85C177.201 122.679 177.342 122.523 177.5 122.385C177.657 122.24 177.836 122.122 178.031 122.034C178.222 121.944 178.426 121.884 178.636 121.854C178.802 121.825 178.971 121.825 179.137 121.854C179.296 121.872 179.451 121.914 179.597 121.979C179.884 122.118 180.126 122.332 180.298 122.6C180.305 122.606 180.31 122.614 180.314 122.623C180.317 122.631 180.319 122.641 180.319 122.65C180.319 122.659 180.317 122.669 180.314 122.677C180.31 122.686 180.305 122.694 180.298 122.7C180.294 122.723 180.281 122.743 180.262 122.756C180.244 122.769 180.22 122.774 180.198 122.77C180.175 122.766 180.155 122.753 180.142 122.735C180.129 122.716 180.124 122.693 180.128 122.67Z" fill="black"/>
<path d="M176.855 129.087C176.748 129.432 176.527 129.729 176.227 129.93C175.927 130.13 175.567 130.221 175.208 130.188C174.688 130.168 174.182 130.016 173.737 129.747C173.292 129.477 172.923 129.098 172.665 128.646L176.855 129.087Z" fill="#BE5640"/>
<path d="M172.835 128.647C172.835 128.647 176.549 128.001 176.785 129.042C176.785 129.042 174.197 129.427 172.835 128.647Z" fill="#BE5640"/>
<path d="M177.055 128.927C177.055 128.927 175.078 129.873 172.55 128.476" stroke="black" stroke-width="0.44" stroke-linecap="round" stroke-linejoin="round"/>
<path d="M165.073 125.113C165.073 125.113 169.197 116.228 163.571 113.41C163.571 113.41 161.764 111.618 160.843 116.414C159.347 124.117 165.073 125.113 165.073 125.113Z" fill="black"/>
<path d="M166.219 127.11C165.982 126.049 165.545 125.044 164.932 124.146C164.072 122.905 162.845 121.759 161.349 122.715C158.796 124.337 162.034 128.421 164.852 128.426C165.688 128.426 166.354 127.77 166.214 127.11H166.219Z" fill="#C67B5B"/>
<path d="M162.069 124.772C164.071 124.061 165.162 126.274 165.162 126.274" stroke="black" stroke-width="0.44" stroke-linecap="round" stroke-linejoin="round"/>
<path d="M165.172 128.146C165.172 128.289 165.13 128.428 165.051 128.546C164.972 128.665 164.859 128.757 164.727 128.812C164.596 128.867 164.451 128.881 164.311 128.853C164.171 128.825 164.043 128.757 163.942 128.656C163.841 128.555 163.772 128.426 163.745 128.287C163.717 128.147 163.731 128.002 163.786 127.87C163.84 127.739 163.933 127.626 164.051 127.547C164.17 127.468 164.309 127.425 164.451 127.425C164.643 127.425 164.826 127.501 164.961 127.636C165.096 127.772 165.172 127.955 165.172 128.146Z" fill="white"/>
<path d="M164.201 113.776C164.201 113.776 169.207 115.833 173.436 113.776C177.666 111.719 180.188 115.618 180.188 115.618C180.188 115.618 178.672 109.406 171.634 109.907C164.597 110.407 164.201 113.776 164.201 113.776Z" fill="black"/>
<path d="M6.48462 301.419H237.148" stroke="black" stroke-width="0.66" stroke-linecap="round" stroke-linejoin="round"/>
<path d="M133.464 283.43H124.875V295.192H133.464V283.43Z" fill="white"/>
<path d="M133.008 292.099L129.62 294.356L125.851 293.17C125.555 293.076 125.237 293.089 124.95 293.205C124.708 293.306 124.502 293.475 124.357 293.693C124.212 293.91 124.134 294.165 124.134 294.426V299.252H149.486C149.486 299.252 149.456 295.022 143.174 296.038L134.295 291.994C134.089 291.9 133.863 291.861 133.638 291.879C133.413 291.898 133.196 291.973 133.008 292.099Z" fill="black"/>
<path d="M124.135 300.858H130.396V299.241H124.135V300.858Z" fill="black"/>
<path d="M130.396 299.247L133.715 300.858H149.487V299.247H130.396Z" fill="black"/>
<path d="M100.659 283.43H109.248L107.752 295.187H99.1626L100.659 283.43Z" fill="white"/>
<path d="M107.292 292.099L103.904 294.356L100.135 293.17C99.8393 293.076 99.5206 293.089 99.2336 293.205C98.9924 293.306 98.7863 293.475 98.6412 293.693C98.496 293.91 98.4183 294.165 98.4177 294.426V299.252H123.769C123.769 299.252 123.739 295.022 117.458 296.038L108.578 291.994C108.373 291.9 108.147 291.861 107.922 291.879C107.697 291.898 107.48 291.973 107.292 292.099Z" fill="black"/>
<path d="M98.4169 300.858H104.678V299.241H98.4169V300.858Z" fill="black"/>
<path d="M104.678 299.247L107.997 300.858H123.769V299.247H104.678Z" fill="black"/>
<path d="M133.769 174.41C133.769 174.41 134.615 176.066 135.146 191.798C135.251 195.031 135.772 200.808 135.807 206.023L135.586 288.39H122.242L120.741 202.299L110.935 288.39L97.4211 288.04L105.38 177.478L118.023 175.911L133.769 174.41Z" fill="#212E38"/>
<path d="M120.725 202.319L127.432 199.431" stroke="black" stroke-width="0.46" stroke-linecap="round" stroke-linejoin="round"/>
<path d="M133.093 179.48L145.942 207.41L150.026 207.129C145.066 188.064 145.076 188.109 141.437 176.332C140.857 174.47 137.103 174.024 135.291 174.75C133.599 175.436 132.418 177.788 133.093 179.48Z" fill="#E9B089"/>
<path d="M145.582 204.912C145.582 204.912 144.506 208.706 146.312 212.154L145.937 215.943C145.909 216.225 145.986 216.507 146.153 216.735C146.32 216.963 146.566 217.122 146.843 217.18C147.148 217.242 147.464 217.186 147.729 217.023C147.994 216.86 148.187 216.603 148.27 216.304L148.875 214.081L149.09 214.842C149.43 216.063 149.349 217.362 148.86 218.531L147.459 221.89C147.299 222.275 146.858 222.205 147.113 222.52C147.233 222.66 147.385 222.768 147.556 222.836C147.726 222.904 147.911 222.929 148.094 222.911C148.277 222.892 148.452 222.83 148.606 222.728C148.759 222.627 148.886 222.491 148.975 222.33L151.868 218.641C152.322 217.849 152.601 216.969 152.688 216.06C152.774 215.151 152.665 214.234 152.369 213.371L148.665 203.59L145.582 204.912Z" fill="#E9B089"/>
<path d="M142.444 175.911L141.333 158.133C139.756 144.513 131.252 140.879 131.252 140.879L130.536 164.064L133.114 162.647L134.946 186.823L142.749 204.957L150.387 201.779L142.444 175.911Z" fill="white"/>
<path d="M117.857 137.616C114.239 137.905 110.682 138.714 107.296 140.019C106.358 140.378 105.44 140.789 104.548 141.25C102.135 142.511 102.856 145.254 103.162 148.017L104.578 185.637L133.994 184.926C134.311 184.918 134.623 184.846 134.912 184.715C135.201 184.583 135.46 184.396 135.675 184.162C135.89 183.929 136.056 183.654 136.162 183.356C136.269 183.057 136.315 182.74 136.296 182.423L135.13 152.251C135.04 146.946 134.104 141.815 130.535 140.564C126.561 139.163 121.711 137.591 119.594 137.466L117.857 137.616Z" fill="#744028"/>
<path d="M128.768 139.938C128.768 139.938 123.183 137.751 119.614 137.46C119.614 137.46 114.744 137.666 111.39 138.697L123.593 154.759L128.768 139.938Z" fill="white"/>
<path d="M121.947 140.233L119.49 143.337L122.413 145.464L124.74 142.996L121.947 140.233Z" fill="#294286"/>
<path d="M121.792 144.143L120.315 150.449L123.593 154.764L124.74 151.485L122.783 144.143H121.792Z" fill="#294286"/>
<path d="M119.374 143.507L118.698 144.528L114.744 142.852" stroke="#E0E0E0" stroke-width="0.75" stroke-linecap="round" stroke-linejoin="round"/>
<path d="M124.74 142.997L125.646 143.848L127.718 142.256" stroke="#E0E0E0" stroke-width="0.75" stroke-linecap="round" stroke-linejoin="round"/>
<path d="M105.639 140.679C105.639 140.679 96.5499 142.141 77.1995 168.418L87.17 176.207L103.152 157.687C109.423 149.519 105.639 140.679 105.639 140.679Z" fill="white"/>
<path d="M99.8188 149.519L121.407 157.367L119.6 162.602L98.6726 154.759L99.8188 149.519Z" fill="black"/>
<path d="M119.525 160.315L120.316 157.767L99.9492 150.544L99.2234 153.152L119.525 160.315Z" fill="white"/>
<path d="M100.134 151.956L89.6577 182.038L111.235 189.471L121.977 159.719L100.134 151.956Z" fill="#212E38"/>
<path d="M100.134 151.956L99.819 149.519L89.2979 179.465L89.6582 182.038L100.134 151.956Z" fill="black"/>
<path d="M114.159 168.213L100.475 163.353L101.711 159.739L115.395 164.599L114.159 168.213Z" fill="white"/>
<path d="M92.6759 170.771L108.548 176.537L107.762 182.478L91.5347 179.45L92.6759 170.771Z" fill="#E9B089"/>
<path d="M108.553 176.537C108.553 176.537 118.683 173.098 118.849 176.902C119.014 180.706 118.458 189.831 107.762 182.478L108.553 176.537Z" fill="#E9B089"/>
<path d="M108.273 177.012L109.459 175.291C110.142 174.298 111.109 173.534 112.232 173.098L114.309 172.287C114.552 172.193 114.819 172.183 115.068 172.259C115.317 172.336 115.533 172.494 115.681 172.708C115.835 172.938 115.901 173.217 115.868 173.492C115.835 173.767 115.705 174.022 115.5 174.209L112.707 176.712L108.273 177.012Z" fill="#E9B089"/>
<path d="M84.6678 166.636L105.249 173.304L103.347 183.78L80.3732 178.044C79.5337 177.791 78.7584 177.361 78.0999 176.782C77.4415 176.204 76.9153 175.49 76.5573 174.69C76.1992 173.89 76.0176 173.022 76.0249 172.145C76.0321 171.269 76.228 170.404 76.5992 169.61C77.2803 168.15 78.5103 167.019 80.0215 166.462C81.5326 165.905 83.2026 165.968 84.6678 166.636Z" fill="white"/>
<path d="M92.7503 169.254L87.1694 167.447" stroke="#E0E0E0" stroke-width="0.75" stroke-linecap="round" stroke-linejoin="round"/>
<path d="M120.846 105.257C120.846 105.257 127.804 102.138 131.407 105.932C134.23 108.936 129.405 114.096 126.848 113.806C124.29 113.515 120.846 105.257 120.846 105.257Z" fill="white"/>
<path d="M126.666 123.071C126.748 122.026 127.03 121.006 127.497 120.068C128.153 118.776 129.159 117.53 130.706 118.241C133.338 119.442 130.806 123.746 128.128 124.117C127.337 124.227 126.626 123.691 126.666 123.046V123.071Z" fill="#D7896D"/>
<path d="M130.246 114.437C130.326 120.027 126.151 124.612 120.13 124.697C114.109 124.782 109.168 120.318 109.088 114.727C109.008 109.136 113.823 104.531 119.845 104.446C125.866 104.361 130.166 108.846 130.246 114.437Z" fill="white"/>
<path d="M117.076 122.685L115.85 137.836L121.946 140.234L124.239 138.492L123.573 124.337L117.076 122.685Z" fill="#E9B089"/>
<path d="M123.973 132.941L118.353 127.61L123.603 125.378L123.973 132.941Z" fill="#D7896D"/>
<path d="M118.158 106.758C119.999 106.208 121.944 106.103 123.834 106.453C126.376 106.953 129.655 108.5 130.125 113.13C130.916 120.853 130.06 127.1 126.271 128.902C123.358 130.288 121.216 129.797 117.812 127.9C116.546 127.185 115.31 124.101 114.944 122.625L113.443 118.511C113.443 118.511 109.373 109.291 118.158 106.758Z" fill="#E9B089"/>
<path d="M125.746 118.666L126.662 120.433L125.971 120.993" stroke="black" stroke-width="0.45" stroke-linecap="round" stroke-linejoin="round"/>
<path d="M126.798 111.949C126.753 112.094 126.742 112.248 126.764 112.399C126.787 112.55 126.842 112.693 126.927 112.82C127.012 112.946 127.124 113.052 127.255 113.13C127.386 113.208 127.532 113.256 127.684 113.27C128.371 113.345 129.045 113.513 129.686 113.771C129.83 113.836 129.993 113.842 130.141 113.787C130.289 113.733 130.409 113.623 130.477 113.48C130.545 113.356 130.58 113.217 130.58 113.075C130.58 112.933 130.545 112.794 130.477 112.67C130.269 112.296 129.983 111.972 129.637 111.722C129.291 111.471 128.894 111.299 128.475 111.218C127.058 110.933 126.798 111.949 126.798 111.949Z" fill="white"/>
<path d="M123.218 111.909C123.218 111.909 123.623 113.02 121.956 113.255C120.76 113.477 119.586 113.812 118.453 114.256C118.264 114.327 118.059 114.338 117.863 114.29C117.667 114.242 117.491 114.136 117.357 113.986C117.264 113.872 117.213 113.73 117.213 113.583C117.213 113.436 117.264 113.294 117.357 113.18C118.304 112.193 119.524 111.51 120.86 111.218C122.877 110.908 123.218 111.909 123.218 111.909Z" fill="white"/>
<path d="M123.484 117.65C123.484 117.65 122.648 114.602 118.654 116.879C118.654 116.879 120.321 120.037 123.484 117.65Z" fill="white"/>
<path d="M122.687 117.234C122.715 117.507 122.662 117.782 122.535 118.025C122.407 118.268 122.211 118.468 121.971 118.6C121.731 118.733 121.457 118.791 121.184 118.769C120.91 118.746 120.649 118.644 120.434 118.474C120.218 118.304 120.058 118.075 119.972 117.815C119.886 117.554 119.878 117.274 119.951 117.01C120.023 116.745 120.171 116.507 120.377 116.327C120.584 116.146 120.839 116.03 121.11 115.993C121.484 115.949 121.86 116.055 122.155 116.288C122.451 116.521 122.642 116.861 122.687 117.234Z" fill="black"/>
<path d="M118.599 116.809C118.979 116.521 119.405 116.299 119.86 116.153C120.315 115.998 120.791 115.916 121.271 115.908C121.764 115.909 122.249 116.036 122.678 116.279C123.124 116.547 123.446 116.98 123.574 117.485C123.58 117.508 123.582 117.533 123.579 117.557C123.576 117.581 123.567 117.604 123.555 117.625C123.542 117.645 123.525 117.663 123.505 117.677C123.485 117.691 123.462 117.7 123.439 117.705C123.415 117.711 123.391 117.712 123.367 117.709C123.343 117.705 123.321 117.697 123.3 117.684C123.279 117.671 123.262 117.655 123.248 117.635C123.234 117.616 123.224 117.593 123.218 117.57C123.118 117.159 122.866 116.802 122.513 116.569C122.135 116.342 121.707 116.214 121.266 116.199C120.814 116.19 120.362 116.254 119.93 116.389C119.492 116.515 119.079 116.714 118.709 116.979C118.692 116.994 118.671 117.002 118.649 117.002C118.626 117.002 118.605 116.994 118.589 116.979C118.573 116.971 118.56 116.958 118.552 116.942C118.544 116.926 118.54 116.909 118.541 116.891C118.542 116.873 118.548 116.856 118.558 116.842C118.568 116.827 118.582 116.816 118.599 116.809Z" fill="black"/>
<path d="M126.667 117.7C126.667 117.7 127.823 114.652 130.06 116.699C130.06 116.719 129.239 119.707 126.667 117.7Z" fill="white"/>
<path d="M127.442 117.094C127.459 117.297 127.532 117.491 127.653 117.654C127.775 117.817 127.94 117.942 128.13 118.015C128.319 118.089 128.526 118.107 128.726 118.069C128.925 118.03 129.11 117.936 129.259 117.797C129.407 117.658 129.513 117.48 129.565 117.283C129.617 117.087 129.613 116.879 129.552 116.685C129.492 116.491 129.378 116.318 129.223 116.186C129.069 116.054 128.88 115.968 128.679 115.938C128.362 115.931 128.056 116.048 127.825 116.264C127.594 116.48 127.457 116.778 127.442 117.094Z" fill="black"/>
<path d="M130 116.759C129.832 116.525 129.606 116.34 129.344 116.223C129.087 116.116 128.803 116.095 128.533 116.163C128.345 116.194 128.162 116.255 127.993 116.343C127.824 116.431 127.669 116.542 127.532 116.674C127.257 116.938 127.044 117.259 126.906 117.615C126.892 117.653 126.862 117.684 126.825 117.701C126.787 117.718 126.745 117.719 126.706 117.705C126.668 117.69 126.637 117.661 126.62 117.623C126.603 117.586 126.601 117.543 126.616 117.505C126.698 117.307 126.802 117.119 126.926 116.944C127.051 116.772 127.193 116.614 127.352 116.473C127.511 116.33 127.692 116.212 127.887 116.123C128.081 116.031 128.286 115.969 128.498 115.938C128.819 115.87 129.154 115.905 129.454 116.038C129.74 116.179 129.984 116.393 130.16 116.659C130.172 116.674 130.178 116.692 130.178 116.711C130.178 116.73 130.172 116.749 130.16 116.764C130.159 116.785 130.15 116.805 130.135 116.82C130.119 116.834 130.098 116.842 130.077 116.841C130.056 116.841 130.036 116.832 130.021 116.816C130.007 116.801 129.999 116.78 130 116.759Z" fill="black"/>
<path d="M126.121 121.809C126.062 121.653 125.965 121.513 125.839 121.403C125.714 121.292 125.563 121.213 125.401 121.174C124.845 121.033 123.859 121.013 122.853 122.09C121.351 123.716 119.905 123.591 119.394 123.256C119.394 123.256 122.142 126.759 125.701 123.816C125.701 123.816 126.532 122.82 126.121 121.809Z" fill="white"/>
<path d="M125.696 122.635C125.66 122.432 125.673 122.224 125.734 122.028C125.795 121.831 125.902 121.652 126.046 121.505C126.19 121.358 126.366 121.248 126.562 121.183C126.757 121.119 126.965 121.101 127.168 121.133C127.779 121.231 128.334 121.543 128.735 122.014C130.131 123.516 130.982 123.406 131.447 123.08C131.447 123.08 129.385 126.284 126.137 123.581C125.925 123.3 125.775 122.978 125.696 122.635Z" fill="white"/>
<path opacity="0.22" d="M129.8 114.662L132.558 117.665C132.558 117.665 132.558 119.822 130.556 120.038L126.307 115.267C126.307 115.267 126.557 114.166 129.8 114.662Z" fill="white"/>
<path opacity="0.22" d="M120.851 114.661L124.104 118.07C124.104 118.07 124.104 120.262 121.602 120.042L116.877 115.037C116.877 115.037 117.868 114.601 120.851 114.661Z" fill="white"/>
<path d="M124.474 116.148C124.442 117.198 124.211 118.233 123.793 119.196C123.667 119.443 123.478 119.653 123.246 119.803C123.013 119.953 122.744 120.039 122.467 120.052H118.533C118.151 120.021 117.79 119.865 117.506 119.608C117.222 119.351 117.03 119.008 116.961 118.631C116.804 117.848 116.773 117.046 116.871 116.253C116.912 115.913 117.06 115.594 117.294 115.343C117.528 115.092 117.835 114.921 118.173 114.857C119.444 114.627 123.478 114.737 123.478 114.737C123.783 114.818 124.05 115.004 124.232 115.262C124.414 115.52 124.5 115.834 124.474 116.148V116.148Z" stroke="black" stroke-width="1.01" stroke-linecap="round" stroke-linejoin="round"/>
<path d="M118.728 114.521L116.145 114.657C116.071 114.661 116.002 114.693 115.953 114.747C115.903 114.802 115.877 114.873 115.88 114.947V115.447C115.88 115.491 115.89 115.533 115.91 115.572C115.93 115.61 115.959 115.643 115.995 115.668L116.851 116.263C116.851 116.263 117.331 114.677 118.728 114.521Z" fill="black"/>
<path d="M126.321 116.088C126.328 117.155 126.54 118.21 126.947 119.196C127.072 119.443 127.26 119.653 127.492 119.803C127.724 119.953 127.992 120.039 128.268 120.052H130.861C131.243 120.021 131.604 119.865 131.888 119.608C132.172 119.351 132.363 119.008 132.433 118.631C132.59 117.848 132.621 117.045 132.523 116.253C132.482 115.912 132.334 115.593 132.1 115.342C131.866 115.091 131.558 114.921 131.221 114.857C129.926 114.706 128.621 114.648 127.317 114.682C126.556 114.722 126.266 115.437 126.321 116.088Z" stroke="black" stroke-width="1.01" stroke-linecap="round" stroke-linejoin="round"/>
<path d="M130.666 114.521L133.253 114.657C133.326 114.662 133.394 114.695 133.442 114.749C133.491 114.803 133.516 114.874 133.514 114.947V115.447C133.511 115.491 133.499 115.533 133.478 115.571C133.458 115.609 133.429 115.642 133.393 115.668L132.537 116.238C132.537 116.238 132.062 114.677 130.666 114.521Z" fill="black"/>
<path d="M126.317 117.299C126.317 117.299 125.666 116.639 124.405 117.39" stroke="black" stroke-width="1.01" stroke-linecap="round" stroke-linejoin="round"/>
<path d="M113.563 118.836L116.887 115.578" stroke="black" stroke-width="1.01" stroke-linecap="round" stroke-linejoin="round"/>
<path d="M116.021 123.201C115.787 122.125 115.346 121.105 114.724 120.198C113.858 118.941 112.627 117.79 111.12 118.751C108.548 120.388 111.806 124.497 114.654 124.507C115.49 124.507 116.156 123.841 116.021 123.176V123.201Z" fill="#E9B089"/>
<path d="M111.826 120.853C113.828 120.137 114.944 122.385 114.944 122.385" stroke="black" stroke-width="0.45" stroke-linecap="round" stroke-linejoin="round"/>
<path d="M123.834 106.453C123.834 106.453 121.221 105.727 120.23 108.345C118.849 111.974 114.684 113.58 111.101 112.479C111.101 112.479 111.921 107.314 117.232 105.797C122.543 104.281 123.834 106.453 123.834 106.453Z" fill="white"/>
<path d="M123.98 105.257C123.98 105.257 122.813 102.519 117.928 103.074C112.092 103.73 108.653 108.675 109.574 111.583C110.28 113.826 114.945 110.612 114.945 110.612L123.98 105.257Z" fill="white"/>
<path d="M76.3782 62.2083L74.166 62.8868L72.6812 59.4486L69.325 60.0435L67.7929 57.6514L66.5811 58.4277L68.6307 61.6261L71.8118 61.0628L73.3566 64.6399L76.6859 63.6174L76.3782 62.2083Z" fill="#50BFA5"/>
<path d="M108.814 58.4643C102.782 59.4552 100.991 67.3716 106.006 70.9124C106.903 71.5565 107.538 72.502 107.795 73.5758L108.707 77.2571C108.829 77.7464 109.13 78.1722 109.551 78.4496C109.972 78.7271 110.482 78.8359 110.979 78.7545L113.264 78.3774C113.762 78.2961 114.21 78.0302 114.52 77.6327C114.83 77.2352 114.979 76.7354 114.937 76.233C114.621 72.4303 114.228 71.0528 115.464 69.3566C119.079 64.3972 114.844 57.4703 108.814 58.4643Z" fill="#F7CC7F"/>
<path d="M109.431 74.5573C109.038 71.3005 108.484 67.8607 108.299 66.8855C104.842 67.0765 106.156 63.4331 107.752 64.9147C108.206 65.336 108.421 65.9088 108.563 66.5368C109.712 66.4331 110.831 66.1073 111.856 65.5775C111.801 64.7743 111.722 64.1574 111.946 63.6508C112.285 62.8745 113.268 62.6631 113.669 63.4205C113.743 63.5656 113.788 63.7242 113.799 63.8869C113.811 64.0496 113.79 64.213 113.737 64.3672C113.505 65.0094 112.807 65.4339 112.2 65.7652C112.381 68.3545 112.632 70.9644 112.949 73.5332L112.624 73.5742C112.309 71.0496 112.062 68.4792 111.881 65.9325C110.863 66.4384 109.761 66.7524 108.629 66.8587C108.866 68.1068 109.388 71.4583 109.757 74.5162L109.431 74.5573ZM106.657 66.1187C106.972 66.4484 107.479 66.592 108.235 66.5605C108.105 66.0066 107.919 65.5096 107.532 65.1562C106.669 64.3577 106.142 65.5633 106.657 66.1187ZM112.247 63.7834C112.059 64.2142 112.13 64.768 112.175 65.4039C112.668 65.123 113.241 64.7727 113.427 64.2568C113.558 63.8954 113.412 63.3858 113.044 63.2911C113.003 63.2816 112.38 63.4804 112.247 63.7834Z" fill="#FAE0B2"/>
<path d="M107.769 73.484C107.769 73.514 107.787 73.544 107.795 73.5756L108.707 77.2568C108.829 77.7462 109.13 78.1719 109.551 78.4493C109.972 78.7268 110.482 78.8356 110.98 78.7542L113.264 78.3771C113.762 78.2958 114.21 78.0299 114.521 77.6324C114.831 77.2349 114.979 76.7351 114.937 76.2327C114.796 74.5412 114.64 73.3294 114.621 72.3574L107.769 73.484Z" fill="#96D9C9"/>
<path d="M104.343 55.7138L102.536 52.4223C102.461 52.2701 102.447 52.0947 102.498 51.9328C102.549 51.7708 102.661 51.6349 102.81 51.5534C102.959 51.4719 103.134 51.4511 103.297 51.4955C103.461 51.5398 103.602 51.6457 103.689 51.7911L105.493 55.0826C105.577 55.2358 105.596 55.4159 105.547 55.5834C105.498 55.7509 105.384 55.892 105.231 55.9757C105.078 56.0594 104.898 56.0788 104.73 56.0297C104.563 55.9806 104.422 55.867 104.338 55.7138H104.343Z" fill="#FAE0B2"/>
<path d="M100.401 63.6855L96.4704 63.3415C96.2965 63.3265 96.1358 63.2429 96.0235 63.1093C95.9112 62.9757 95.8565 62.803 95.8716 62.6291C95.8867 62.4552 95.9702 62.2944 96.1038 62.1821C96.2374 62.0698 96.4101 62.0152 96.584 62.0303L100.516 62.3743C100.69 62.3895 100.851 62.4733 100.963 62.607C101.075 62.7408 101.129 62.9136 101.114 63.0875C101.099 63.2614 101.015 63.4221 100.881 63.5342C100.748 63.6464 100.575 63.7008 100.401 63.6855Z" fill="#FAE0B2"/>
<path d="M96.5043 75.7299C96.4432 75.6689 96.3947 75.5965 96.3616 75.5167C96.3286 75.437 96.3115 75.3515 96.3115 75.2652C96.3115 75.1789 96.3286 75.0934 96.3616 75.0136C96.3947 74.9339 96.4432 74.8615 96.5043 74.8005C97.4724 73.8437 98.5291 72.981 99.6601 72.2238C99.8051 72.1344 99.9791 72.1048 100.146 72.1411C100.312 72.1774 100.458 72.2768 100.552 72.4184C100.647 72.5601 100.683 72.7329 100.653 72.9005C100.623 73.0681 100.529 73.2175 100.391 73.3173C99.3281 74.0279 98.3353 74.8379 97.4258 75.7362C97.3022 75.8564 97.1362 75.9231 96.9638 75.9219C96.7913 75.9207 96.6263 75.8518 96.5043 75.7299Z" fill="#FAE0B2"/>
<path d="M114.055 55.5358C113.97 55.5143 113.891 55.4764 113.822 55.4242C113.753 55.3721 113.694 55.3067 113.65 55.2319C113.606 55.1571 113.578 55.0744 113.566 54.9884C113.554 54.9024 113.559 54.815 113.581 54.731C114.027 53.061 114.298 51.3493 114.392 49.6234C114.401 49.4491 114.479 49.2856 114.609 49.1689C114.739 49.0521 114.91 48.9917 115.084 49.0009C115.258 49.0101 115.422 49.0882 115.539 49.218C115.655 49.3477 115.716 49.5185 115.707 49.6928C115.608 51.51 115.322 53.312 114.853 55.0703C114.808 55.2372 114.699 55.3797 114.549 55.4668C114.4 55.5539 114.222 55.5787 114.055 55.5358Z" fill="#FAE0B2"/>
<path d="M118.105 60.59C118.08 60.5072 118.072 60.4203 118.08 60.3343C118.089 60.2482 118.114 60.1647 118.155 60.0885C118.196 60.0123 118.252 59.9449 118.319 59.8902C118.386 59.8354 118.463 59.7944 118.546 59.7695L122.632 58.5388C122.715 58.5138 122.802 58.5054 122.888 58.514C122.974 58.5227 123.058 58.5482 123.134 58.5892C123.211 58.6301 123.278 58.6857 123.333 58.7527C123.388 58.8197 123.429 58.8969 123.454 58.9798C123.479 59.0627 123.487 59.1497 123.478 59.2358C123.47 59.3219 123.444 59.4055 123.403 59.4818C123.362 59.558 123.307 59.6255 123.24 59.6803C123.173 59.7351 123.095 59.7761 123.013 59.8011L118.926 61.0334C118.758 61.0834 118.578 61.0648 118.424 60.9816C118.27 60.8985 118.155 60.7576 118.105 60.59Z" fill="#FAE0B2"/>
<path d="M124.819 71.4647C124.759 71.4645 124.699 71.4565 124.641 71.441C123.222 71.0405 121.85 70.4904 120.548 69.8C120.47 69.7602 120.401 69.7054 120.345 69.6387C120.288 69.5719 120.246 69.4947 120.22 69.4113C120.194 69.328 120.184 69.2403 120.192 69.1534C120.2 69.0664 120.226 68.9819 120.267 68.9048C120.308 68.8277 120.364 68.7596 120.431 68.7044C120.499 68.6492 120.577 68.608 120.661 68.5832C120.745 68.5584 120.832 68.5506 120.919 68.5601C121.006 68.5696 121.09 68.5963 121.166 68.6387C122.385 69.2854 123.67 69.8 124.998 70.174C125.15 70.2174 125.282 70.3145 125.368 70.4473C125.455 70.5801 125.491 70.7397 125.469 70.8967C125.447 71.0538 125.37 71.1977 125.25 71.302C125.131 71.4064 124.978 71.4641 124.819 71.4647Z" fill="#FAE0B2"/>
<path d="M106.474 16.7474L104.411 11.8702L99.2264 10.8051C99.0934 10.7778 98.9708 10.7138 98.8723 10.6203C98.7738 10.5269 98.7034 10.4078 98.6691 10.2765C98.6348 10.1451 98.6379 10.0068 98.6781 9.87714C98.7184 9.74748 98.794 9.63166 98.8966 9.54278L102.897 6.07141L102.306 0.810697C102.291 0.675099 102.314 0.537931 102.373 0.414798C102.432 0.291664 102.524 0.18751 102.639 0.114185C102.754 0.0408601 102.888 0.00130992 103.024 3.19756e-05C103.16 -0.00124597 103.295 0.0358053 103.411 0.106962L107.944 2.83988L112.766 0.652908C112.89 0.596903 113.027 0.576647 113.162 0.59443C113.296 0.612213 113.423 0.667333 113.528 0.753539C113.633 0.839745 113.712 0.953597 113.755 1.08222C113.799 1.21083 113.806 1.34908 113.775 1.4813L112.577 6.63788L116.146 10.5479C116.238 10.6481 116.299 10.7718 116.324 10.9051C116.349 11.0384 116.336 11.176 116.287 11.3023C116.237 11.4287 116.154 11.5388 116.045 11.6202C115.937 11.7015 115.808 11.751 115.673 11.7629L110.398 12.2173L107.783 16.82C107.717 16.9397 107.618 17.0381 107.498 17.1042C107.378 17.1703 107.242 17.2014 107.106 17.1938C106.969 17.1862 106.837 17.1404 106.726 17.0614C106.614 16.9825 106.527 16.8737 106.474 16.7474Z" fill="#F7CC7F"/>
<path d="M213.508 73.3916L212.66 76.8046L207.016 76.0472L205.162 80.885L200.847 81.0097L200.91 83.1935L206.68 83.0278L208.438 78.444L214.309 79.2314L215.584 74.0938L213.508 73.3916Z" fill="#F48C7F"/>
<path d="M187.3 38.7419L182.143 40.1509L181.032 33.9009L182.719 33.6011L183.502 38.0018L186.848 37.0882L187.3 38.7419Z" fill="#50BFA5"/>
<path d="M86.7349 43.6398L54.3723 55.1837C53.8714 55.3623 53.32 55.3347 52.8394 55.1068C52.3589 54.879 51.9885 54.4696 51.8098 53.9687L45.8343 37.2241C45.6557 36.7231 45.6833 36.1718 45.9111 35.6912C46.139 35.2107 46.5484 34.8403 47.0493 34.6616L79.4119 23.1161C79.9129 22.9379 80.4641 22.9657 80.9445 23.1935C81.4249 23.4213 81.7954 23.8304 81.9744 24.3311L87.9468 41.0773C88.0355 41.3251 88.0746 41.588 88.0617 41.8509C88.0488 42.1138 87.9843 42.3716 87.8717 42.6096C87.7592 42.8476 87.6009 43.061 87.4058 43.2378C87.2108 43.4145 86.9828 43.5511 86.7349 43.6398Z" fill="#86B1F2"/>
<path d="M65.2855 39.3351C65.7117 40.53 65.7741 41.8244 65.4647 43.0547C65.1552 44.2851 64.4879 45.396 63.5471 46.247C62.6062 47.0981 61.4342 47.651 60.1791 47.8359C58.924 48.0208 57.6423 47.8294 56.496 47.2858C55.3497 46.7423 54.3903 45.871 53.7392 44.7822C53.0882 43.6933 52.7746 42.4359 52.8381 41.1689C52.9017 39.9018 53.3396 38.6821 54.0964 37.6639C54.8532 36.6457 55.8949 35.8748 57.0899 35.4487C57.8832 35.1656 58.7245 35.0416 59.5657 35.0837C60.407 35.1258 61.2317 35.3332 61.9928 35.6941C62.7538 36.055 63.4363 36.5623 64.0013 37.1871C64.5663 37.8118 65.0027 38.5417 65.2855 39.3351Z" fill="white"/>
<path d="M60.1632 38.4372C60.2897 38.79 60.3086 39.1723 60.2176 39.5359C60.1266 39.8994 59.9298 40.2278 59.652 40.4794C59.3743 40.731 59.0282 40.8945 58.6575 40.9493C58.2867 41.004 57.9081 40.9475 57.5695 40.787C57.2309 40.6264 56.9475 40.369 56.7553 40.0473C56.5631 39.7256 56.4707 39.3541 56.4898 38.9798C56.5088 38.6056 56.6385 38.2454 56.8624 37.9448C57.0863 37.6443 57.3943 37.417 57.7475 37.2917C58.2198 37.124 58.7392 37.1505 59.1921 37.3652C59.6449 37.58 59.9941 37.9655 60.1632 38.4372Z" fill="#86B1F2"/>
<path d="M58.6818 42.2476L60.1531 41.7228C60.7128 41.5232 61.3289 41.5541 61.8658 41.8087C62.4028 42.0633 62.8166 42.5208 63.0162 43.0805L63.2441 43.7196L57.5461 45.7519L57.3182 45.1128C57.2191 44.8352 57.1759 44.5407 57.1908 44.2464C57.2058 43.952 57.2787 43.6634 57.4054 43.3972C57.532 43.1311 57.71 42.8925 57.929 42.6952C58.148 42.498 58.4038 42.3459 58.6818 42.2476Z" fill="#86B1F2"/>
<path d="M66.0839 35.8356C65.8914 35.835 65.7054 35.7666 65.5583 35.6425C65.4113 35.5184 65.3126 35.3465 65.2797 35.1569C65.2467 34.9673 65.2816 34.7722 65.3782 34.6057C65.4747 34.4393 65.6268 34.3122 65.8077 34.2466L79.9551 29.1974C80.0563 29.1613 80.1635 29.1455 80.2707 29.1509C80.3779 29.1563 80.483 29.1828 80.58 29.2288C80.677 29.2748 80.764 29.3394 80.836 29.4191C80.908 29.4987 80.9637 29.5917 80.9997 29.6928C81.0358 29.794 81.0516 29.9012 81.0462 30.0084C81.0408 30.1156 81.0143 30.2207 80.9683 30.3177C80.9223 30.4147 80.8577 30.5017 80.778 30.5737C80.6984 30.6457 80.6054 30.7014 80.5043 30.7374L66.3584 35.7867C66.2703 35.8184 66.1775 35.835 66.0839 35.8356Z" fill="white"/>
<path d="M69.9024 39.3619C69.7089 39.3631 69.5213 39.2956 69.3729 39.1714C69.2245 39.0472 69.125 38.8744 69.092 38.6838C69.0591 38.4931 69.0948 38.2969 69.1929 38.1301C69.2911 37.9634 69.4452 37.8368 69.6278 37.773L80.6731 33.8282C80.8773 33.7554 81.1021 33.7667 81.298 33.8596C81.4939 33.9526 81.6449 34.1195 81.7177 34.3237C81.7905 34.5279 81.7792 34.7527 81.6863 34.9486C81.5934 35.1445 81.4264 35.2955 81.2222 35.3683L70.1769 39.313C70.0889 39.3449 69.996 39.3614 69.9024 39.3619Z" fill="white"/>
<path d="M145.873 27.9961C147.091 28.9681 149.21 32.0986 151.912 34.2903C153.49 35.5747 154.711 35.2481 156.729 35.4927C166.304 36.6493 163.71 38.6074 164.858 38.8063C164.532 39.5573 161.545 45.8989 160.991 47.1802C160.476 48.362 159.588 48.8906 158.301 48.7139C156.32 48.4393 154.323 48.2405 152.372 47.8129C147.375 46.7289 144.595 44.2295 141.011 41.1952C140.065 40.3889 139.828 39.3854 140.32 38.2461C142.61 32.9412 145.621 28.4837 145.873 27.9961Z" fill="#466EB6"/>
<path d="M165.89 46.4277C165.848 48.5137 166.007 48.9318 165.111 48.6162C164.569 48.4186 164.042 48.184 163.533 47.9141C163.175 47.7295 163.16 47.4849 163.452 47.1914C163.877 46.7638 164.314 46.3488 164.738 45.9291C164.593 45.5228 164.595 45.0785 164.743 44.6733C164.891 44.2681 165.176 43.9275 165.549 43.7106C165.707 43.6191 165.592 43.8131 166.925 40.7441C162.515 40.1997 159.403 39.8353 154.024 39.1662C152.612 38.9989 151.28 38.4188 150.195 37.4984C146.353 34.2847 142.514 31.0685 138.676 27.8496C138.156 27.4141 138.089 26.7734 138.503 26.2811C138.818 25.9056 139.238 25.8867 139.689 25.9435C140.917 26.1012 152.955 27.5924 154.177 27.7359C155.749 27.9075 157.232 28.5456 158.438 29.5679C162.212 32.73 165.992 35.8858 169.777 39.0353C170.296 39.4676 170.436 39.8652 170.25 40.3465C170.05 40.8751 169.619 41.1276 168.953 40.9777C168.48 40.8751 168.265 41.0187 168.101 41.4605C167.359 43.455 166.839 43.8968 167.02 44.6257C167.164 45.2096 166.495 46.1831 165.89 46.4277Z" fill="#86B1F2"/>
<path d="M24.9354 50.4404L26.4029 53.3453L29.7196 53.238L31.135 56.6084L34.6316 55.4061L36.4004 59.1473L39.7566 58.4356L42.0461 61.7587L40.7901 62.6249L39.0765 60.1413L35.5342 60.8924L33.8348 57.2948L30.2798 58.5177L28.7176 54.7986L25.4798 54.9027L24.1181 52.2108L22.0069 52.7252L21.6455 51.2404L24.9354 50.4404Z" fill="#F7CC7F"/>
<path d="M8.60054 81.7081L11.6143 82.9325L14.0443 80.6729L17.3263 82.2856L19.1724 79.0809L22.9641 80.7408L25.028 78L28.9365 79.0004L28.5578 80.4789L25.6355 79.7309L23.458 82.6248L19.813 81.0296L17.9354 84.2879L14.3141 82.508L11.9425 84.7139L9.14807 83.5794L7.89207 85.3546L6.64551 84.4725L8.60054 81.7081Z" fill="#50BFA5"/>
</svg>
