<svg width="248" height="37" viewBox="0 0 248 37" fill="none" xmlns="http://www.w3.org/2000/svg">
<path d="M46.2536 11.7255C47.093 10.1586 48.2451 8.94726 49.7099 8.08151C51.1748 7.21906 52.8108 6.78784 54.6114 6.78784C56.3857 6.78784 57.9263 7.16968 59.2331 7.93338C60.54 8.69708 61.5143 9.65828 62.1562 10.817V7.12031H65.5599V27.3879H62.1562V23.6155C61.4913 24.7973 60.4972 25.7782 59.1804 26.5551C57.8604 27.3319 56.3264 27.7204 54.5752 27.7204C52.7746 27.7204 51.1485 27.276 49.6935 26.3905C48.2385 25.5017 47.093 24.2574 46.2536 22.6543C45.4141 21.0512 44.9961 19.2275 44.9961 17.18C44.9961 15.1095 45.4174 13.2891 46.2536 11.7255ZM61.2312 13.2233C60.6157 12.0909 59.7828 11.2219 58.736 10.6162C57.6893 10.0138 56.5371 9.71095 55.2797 9.71095C54.0222 9.71095 52.8766 10.0072 51.8397 10.5997C50.8028 11.1923 49.9766 12.0547 49.361 13.1871C48.7454 14.3228 48.436 15.6526 48.436 17.18C48.436 18.7338 48.7454 20.0834 49.361 21.2289C49.9766 22.3745 50.8028 23.2501 51.8397 23.8558C52.8766 24.4615 54.0222 24.761 55.2797 24.761C56.5371 24.761 57.6893 24.4582 58.736 23.8558C59.7828 23.2534 60.6157 22.3778 61.2312 21.2289C61.8468 20.0834 62.1562 18.7469 62.1562 17.2162C62.1562 15.6889 61.8468 14.3557 61.2312 13.2233Z" fill="black"/>
<path d="M76.7257 7.93337C78.0556 7.16967 79.5731 6.78783 81.2749 6.78783C83.0986 6.78783 84.7379 7.21905 86.1929 8.0815C87.6479 8.94395 88.7934 10.1586 89.6328 11.7255C90.4722 13.2924 90.8903 15.1095 90.8903 17.18C90.8903 19.2275 90.4722 21.0512 89.6328 22.6543C88.7934 24.2574 87.6413 25.5017 86.1764 26.3905C84.7083 27.2793 83.0755 27.7204 81.2749 27.7204C79.5237 27.7204 77.9897 27.3385 76.6697 26.5748C75.3497 25.8111 74.3589 24.8367 73.6939 23.6517V27.3879H70.3297V0.0198975H73.6939V10.8927C74.3852 9.68461 75.3958 8.69706 76.7257 7.93337ZM86.5254 13.1838C85.9098 12.0514 85.077 11.1857 84.0302 10.5964C82.9834 10.0039 81.8312 9.70765 80.5738 9.70765C79.3394 9.70765 78.2004 10.0105 77.1536 10.6129C76.1068 11.2186 75.2674 12.0909 74.6387 13.2397C74.0099 14.3853 73.6972 15.7119 73.6972 17.2162C73.6972 18.7436 74.0132 20.0834 74.6387 21.2289C75.2674 22.3745 76.1068 23.2501 77.1536 23.8558C78.2004 24.4615 79.3426 24.761 80.5738 24.761C81.8312 24.761 82.9834 24.4582 84.0302 23.8558C85.077 23.2534 85.9098 22.3778 86.5254 21.2289C87.1409 20.0834 87.4503 18.7337 87.4503 17.18C87.4503 15.6493 87.1442 14.3195 86.5254 13.1838Z" fill="black"/>
<path d="M99.3041 26.9237C98.0697 26.3938 97.0986 25.6531 96.381 24.7051C95.6666 23.757 95.2716 22.6642 95.1959 21.433H98.6721C98.7708 22.4436 99.2448 23.2699 100.097 23.9118C100.947 24.5537 102.063 24.873 103.445 24.873C104.726 24.873 105.74 24.5899 106.477 24.0237C107.218 23.4575 107.586 22.7432 107.586 21.8774C107.586 20.9886 107.191 20.3303 106.401 19.8991C105.611 19.4678 104.39 19.0432 102.741 18.6218C101.236 18.2268 100.009 17.8252 99.0605 17.4203C98.1125 17.0122 97.2961 16.4098 96.618 15.6098C95.9399 14.8099 95.6008 13.7533 95.6008 12.4464C95.6008 11.4095 95.9102 10.4615 96.5258 9.59903C97.1414 8.73658 98.017 8.05189 99.1527 7.54495C100.285 7.04131 101.582 6.78784 103.037 6.78784C105.279 6.78784 107.092 7.35402 108.472 8.48969C109.851 9.62536 110.592 11.1758 110.69 13.1509H107.326C107.254 12.0909 106.826 11.2416 106.049 10.5997C105.272 9.95784 104.232 9.63854 102.925 9.63854C101.717 9.63854 100.756 9.89858 100.041 10.4154C99.3271 10.9322 98.9683 11.6103 98.9683 12.4497C98.9683 13.1147 99.1823 13.6644 99.6168 14.0956C100.048 14.5268 100.591 14.8725 101.243 15.1325C101.895 15.3926 102.803 15.6823 103.962 16.0016C105.417 16.3966 106.599 16.785 107.514 17.1669C108.426 17.5487 109.209 18.1215 109.861 18.8852C110.513 19.6489 110.852 20.6496 110.878 21.8807C110.878 22.99 110.569 23.9875 109.953 24.8763C109.337 25.765 108.468 26.4596 107.346 26.9665C106.223 27.4702 104.936 27.7237 103.481 27.7237C101.931 27.7204 100.539 27.4537 99.3041 26.9237Z" fill="black"/>
<path d="M135.168 18.5099H118.969C119.091 20.508 119.776 22.0651 121.023 23.1876C122.268 24.3101 123.779 24.8697 125.553 24.8697C127.008 24.8697 128.222 24.5306 129.197 23.8525C130.171 23.1744 130.856 22.2691 131.251 21.1335H134.875C134.332 23.0822 133.249 24.6656 131.62 25.8868C129.993 27.1081 127.969 27.7171 125.553 27.7171C123.63 27.7171 121.909 27.2858 120.395 26.4234C118.877 25.5609 117.689 24.3331 116.826 22.7432C115.964 21.1532 115.533 19.3098 115.533 17.213C115.533 15.1161 115.951 13.2793 116.79 11.7025C117.629 10.1257 118.805 8.91104 120.322 8.05847C121.84 7.20919 123.581 6.78125 125.556 6.78125C127.479 6.78125 129.18 7.19931 130.658 8.03872C132.136 8.87813 133.279 10.0303 134.079 11.4951C134.878 12.9632 135.28 14.619 135.28 16.469C135.277 17.1175 135.241 17.7956 135.168 18.5099ZM130.951 12.4629C130.385 11.5379 129.615 10.8367 128.641 10.3561C127.666 9.87554 126.586 9.63524 125.405 9.63524C123.703 9.63524 122.254 10.1784 121.06 11.2614C119.865 12.3477 119.18 13.8487 119.005 15.7744H131.801C131.801 14.4906 131.518 13.3879 130.951 12.4629Z" fill="black"/>
<path d="M155.768 8.98708C157.296 10.4783 158.063 12.6311 158.063 15.439V27.3849H154.735V15.9196C154.735 13.8984 154.228 12.3513 153.217 11.2782C152.207 10.205 150.824 9.66849 149.076 9.66849C147.302 9.66849 145.89 10.2248 144.843 11.3341C143.796 12.4435 143.269 14.0597 143.269 16.1797V27.3849H139.905V7.11735H143.269V10.001C143.934 8.96404 144.843 8.16413 145.988 7.59795C147.134 7.03176 148.398 6.74866 149.78 6.74866C152.243 6.75195 154.241 7.4959 155.768 8.98708Z" fill="black"/>
<path d="M162.836 4.10534C162.391 3.66095 162.171 3.12111 162.171 2.47921C162.171 1.83731 162.391 1.29416 162.836 0.853059C163.28 0.408667 163.82 0.18811 164.462 0.18811C165.077 0.18811 165.601 0.408667 166.032 0.853059C166.463 1.29745 166.681 1.8406 166.681 2.47921C166.681 3.12111 166.463 3.66424 166.032 4.10534C165.601 4.54974 165.077 4.77029 164.462 4.77029C163.823 4.77359 163.28 4.54974 162.836 4.10534ZM166.091 7.12063V27.3882H162.727V7.12063H166.091Z" fill="black"/>
<path d="M186.573 8.98708C188.1 10.4783 188.867 12.6311 188.867 15.439V27.3849H185.536V15.9196C185.536 13.8984 185.029 12.3513 184.018 11.2782C183.008 10.205 181.625 9.66849 179.877 9.66849C178.103 9.66849 176.691 10.2248 175.644 11.3341C174.597 12.4435 174.071 14.0597 174.071 16.1797V27.3849H170.706V7.11735H174.071V10.001C174.736 8.96404 175.644 8.16413 176.79 7.59795C177.935 7.03176 179.199 6.74866 180.582 6.74866C183.047 6.75195 185.042 7.4959 186.573 8.98708Z" fill="black"/>
<path d="M194.71 11.7255C195.55 10.1586 196.702 8.94726 198.167 8.08151C199.631 7.21906 201.267 6.78784 203.068 6.78784C204.842 6.78784 206.383 7.16968 207.69 7.93338C208.997 8.69708 209.971 9.65828 210.613 10.817V7.12031H214.017V27.3879H210.613V23.6155C209.948 24.7973 208.954 25.7782 207.637 26.5551C206.317 27.3319 204.783 27.7204 203.032 27.7204C201.231 27.7204 199.605 27.276 198.15 26.3905C196.695 25.5017 195.55 24.2574 194.71 22.6543C193.871 21.0512 193.453 19.2275 193.453 17.18C193.453 15.1095 193.871 13.2891 194.71 11.7255ZM209.688 13.2233C209.072 12.0909 208.239 11.2219 207.193 10.6162C206.146 10.0138 204.994 9.71095 203.736 9.71095C202.479 9.71095 201.333 10.0072 200.296 10.5997C199.259 11.1923 198.433 12.0547 197.818 13.1871C197.202 14.3228 196.893 15.6526 196.893 17.18C196.893 18.7338 197.202 20.0834 197.818 21.2289C198.433 22.3745 199.259 23.2501 200.296 23.8558C201.333 24.4615 202.479 24.761 203.736 24.761C204.994 24.761 206.146 24.4582 207.193 23.8558C208.239 23.2534 209.072 22.3778 209.688 21.2289C210.303 20.0834 210.613 18.7469 210.613 17.2162C210.613 15.6889 210.303 14.3557 209.688 13.2233Z" fill="black"/>
<path d="M222.101 31.7861C222.101 33.5867 221.644 34.9034 220.732 35.7428C219.82 36.5822 218.487 37.0003 216.739 37.0003H214.78V34.1529H216.186C217.124 34.1529 217.782 33.9685 218.164 33.5965C218.546 33.2279 218.737 32.5991 218.737 31.7103V7.11735H222.101V31.7861ZM218.829 4.10534C218.398 3.66095 218.181 3.12111 218.181 2.47921C218.181 1.83731 218.398 1.29416 218.829 0.853059C219.26 0.408667 219.797 0.18811 220.439 0.18811C221.081 0.18811 221.617 0.408667 222.049 0.853059C222.48 1.29745 222.697 1.8406 222.697 2.47921C222.697 3.12111 222.48 3.66424 222.049 4.10534C221.617 4.54974 221.081 4.77029 220.439 4.77029C219.797 4.77359 219.26 4.54974 218.829 4.10534Z" fill="black"/>
<path d="M228.05 11.7255C228.889 10.1586 230.041 8.94726 231.506 8.08151C232.971 7.21906 234.607 6.78784 236.407 6.78784C238.182 6.78784 239.722 7.16968 241.029 7.93338C242.336 8.69708 243.31 9.65828 243.952 10.817V7.12031H247.356V27.3879H243.952V23.6155C243.287 24.7973 242.293 25.7782 240.976 26.5551C239.656 27.3319 238.122 27.7204 236.371 27.7204C234.571 27.7204 232.944 27.276 231.489 26.3905C230.034 25.5017 228.889 24.2574 228.05 22.6543C227.21 21.0512 226.792 19.2275 226.792 17.18C226.792 15.1095 227.213 13.2891 228.05 11.7255ZM243.03 13.2233C242.415 12.0909 241.582 11.2219 240.535 10.6162C239.489 10.0138 238.336 9.71095 237.079 9.71095C235.821 9.71095 234.676 10.0072 233.639 10.5997C232.602 11.1923 231.776 12.0547 231.16 13.1871C230.545 14.3228 230.235 15.6526 230.235 17.18C230.235 18.7338 230.545 20.0834 231.16 21.2289C231.776 22.3745 232.602 23.2501 233.639 23.8558C234.676 24.4615 235.821 24.761 237.079 24.761C238.336 24.761 239.489 24.4582 240.535 23.8558C241.582 23.2534 242.415 22.3778 243.03 21.2289C243.646 20.0834 243.955 18.7469 243.955 17.2162C243.952 15.6889 243.646 14.3557 243.03 13.2233Z" fill="black"/>
<path d="M18.1745 4.10508C16.3179 4.11166 14.5108 4.58239 12.8352 5.46459C12.6246 5.56993 12.4205 5.69502 12.2131 5.81024C12.0123 5.94191 11.8016 6.05712 11.6041 6.19209C11.1992 6.45214 10.8108 6.7451 10.4289 7.05124C9.66194 7.66022 8.93445 8.34821 8.25963 9.09216C7.58152 9.83939 6.95608 10.6393 6.37673 11.4853L6.15618 11.8112L5.94879 12.1272C5.81383 12.3412 5.67886 12.5518 5.55048 12.7724C5.29043 13.2102 5.04684 13.6612 4.81641 14.122C4.35556 15.0404 3.9408 15.9918 3.56553 16.9563C3.38777 17.4401 3.21002 17.924 3.05531 18.4145C2.90388 18.905 2.76892 19.3988 2.657 19.8925C2.54837 20.3863 2.46936 20.8834 2.41999 21.3738C2.37061 21.8643 2.3739 22.3482 2.4167 22.8091C2.46278 23.2699 2.57141 23.7044 2.73929 24.0698C2.91047 24.4385 3.1376 24.7348 3.44374 24.9422C3.75975 25.1627 4.15805 25.3306 4.59915 25.426C5.04025 25.5248 5.51427 25.561 5.99817 25.5511C6.96266 25.5215 7.9535 25.3141 8.87191 24.9487C9.79032 24.5932 10.6528 24.0929 11.3506 23.4806C11.6996 23.1745 12.009 22.8453 12.2559 22.4964C12.5061 22.1441 12.6772 21.7985 12.8254 21.3837C12.9735 20.9722 13.0821 20.5048 13.2171 19.9584C13.3586 19.4185 13.5002 18.7865 13.8787 18.0755L14.0236 17.8121C14.0795 17.7232 14.1421 17.6377 14.2013 17.5521C14.3165 17.3776 14.4713 17.2163 14.6161 17.055C14.7675 16.9003 14.942 16.7587 15.1099 16.6238C15.2843 16.5053 15.4654 16.3802 15.6464 16.2847C16.3805 15.8897 17.1574 15.7185 17.9243 15.6922C18.6946 15.6757 19.4682 15.8041 20.2121 16.1366C20.3043 16.1761 20.3965 16.2255 20.4887 16.2716C20.5808 16.3176 20.6697 16.3736 20.7586 16.4296C20.9363 16.5448 21.1141 16.6567 21.2754 16.8048L21.519 17.0188C21.5914 17.0978 21.6638 17.1768 21.7362 17.2558C21.8844 17.4138 21.9963 17.585 22.1148 17.7562C22.5658 18.4474 22.7567 19.119 22.918 19.6983C23.076 20.2777 23.1748 20.7912 23.3064 21.2257C23.7113 22.7761 25.2881 24.1422 27.0953 24.9191C28.0005 25.3108 28.9815 25.5742 29.9493 25.64C30.4332 25.6762 30.9138 25.6598 31.3582 25.5742C31.4701 25.5511 31.582 25.5347 31.6873 25.5018C31.796 25.4754 31.898 25.4392 32.0001 25.403C32.1054 25.3701 32.1943 25.3207 32.293 25.2812C32.3786 25.2285 32.4774 25.189 32.5531 25.1331C32.879 24.9191 33.139 24.6294 33.3464 24.2607C33.5571 23.8954 33.6855 23.451 33.771 22.9868C33.8566 22.5194 33.8764 22.0256 33.8665 21.5253C33.8566 21.0249 33.804 20.518 33.7184 20.0078C33.5538 18.9939 33.2773 17.9833 32.9382 16.9925C32.5992 16.0049 32.2009 15.0306 31.7367 14.0957C31.5063 13.6282 31.2627 13.1674 31.0026 12.723C30.8743 12.4992 30.7393 12.2786 30.6043 12.0614C30.4628 11.8441 30.3311 11.64 30.1764 11.4129C29.5839 10.5537 28.9519 9.74393 28.254 8.9934C26.8681 7.49234 25.2716 6.23817 23.5632 5.37901C21.8547 4.5429 20.0311 4.09191 18.1745 4.10508ZM18.1976 0.000209946C19.4682 0.0265443 20.7454 0.207593 21.9667 0.566399C22.2761 0.645402 22.5691 0.763915 22.8719 0.862669C23.1682 0.97459 23.4644 1.0898 23.7508 1.21488C24.0372 1.34326 24.3236 1.47494 24.5968 1.62636C24.8766 1.7679 25.1465 1.92592 25.4132 2.08392C27.5495 3.37101 29.2876 5.09921 30.713 6.97224C31.424 7.91369 32.0725 8.89794 32.6387 9.90523C32.7769 10.1455 32.9251 10.4122 33.0633 10.6689C33.1983 10.929 33.3332 11.189 33.4583 11.4524C33.7118 11.9791 33.9488 12.509 34.1595 13.0489C35.0121 15.2017 35.6112 17.4401 35.812 19.7773C35.9074 20.9459 35.9107 22.1441 35.6704 23.372C35.5486 23.9842 35.3445 24.6031 35.0186 25.2022C34.8508 25.4985 34.6565 25.7881 34.4195 26.0482L34.2385 26.2424C34.1792 26.3082 34.1068 26.3609 34.041 26.4202L33.8369 26.5913L33.6196 26.746C33.0337 27.1509 32.3885 27.3616 31.763 27.5065C31.131 27.648 30.5056 27.6908 29.89 27.6842C28.6589 27.6612 27.464 27.4406 26.3118 27.0621C25.163 26.6736 24.0471 26.1404 23.0332 25.3635C22.5263 24.9751 22.049 24.5241 21.6243 23.9941C21.4104 23.7308 21.2161 23.451 21.0384 23.1317C20.9429 22.9769 20.8804 22.8222 20.8014 22.6675C20.729 22.5128 20.6697 22.3614 20.6039 22.21C20.3701 21.6076 20.2056 21.0512 20.0508 20.5772C19.8928 20.1065 19.7315 19.7214 19.5604 19.5008C19.3859 19.2803 19.2279 19.1585 18.9613 19.04C18.7012 18.928 18.3622 18.8688 18.033 18.8853C17.7038 18.8918 17.3812 18.9741 17.1409 19.0959C16.8973 19.221 16.7788 19.3362 16.6109 19.5963C16.4496 19.8497 16.2949 20.2908 16.1336 20.8011C15.969 21.3146 15.7814 21.9071 15.5049 22.5128C15.235 23.1152 14.8498 23.7308 14.4054 24.2311C13.961 24.7381 13.4673 25.1693 12.9471 25.538C12.427 25.9066 11.8839 26.2161 11.3243 26.4761C10.7647 26.7362 10.1952 26.9567 9.61585 27.1312C8.45056 27.4702 7.25235 27.6743 6.01792 27.6612C5.39907 27.6579 4.77362 27.592 4.14159 27.4472C3.51286 27.3057 2.87097 27.0489 2.27844 26.6539C2.13031 26.5551 1.98876 26.43 1.84392 26.3148C1.71225 26.1897 1.58058 26.0614 1.45878 25.9264C1.22507 25.6499 1.02097 25.3536 0.859675 25.0475C0.530495 24.4352 0.336281 23.7966 0.207901 23.1745C0.0795205 22.549 0.0235598 21.9302 0.00710083 21.3212C-0.0126499 20.7122 0.0103956 20.1131 0.0564808 19.5173C0.260572 17.1472 0.862969 14.8758 1.77809 12.723C2.00851 12.1832 2.2521 11.6499 2.52203 11.1232C2.6537 10.8598 2.79525 10.5965 2.94009 10.3365L3.16064 9.94473L3.3779 9.57276C3.97701 8.56547 4.64853 7.58122 5.39906 6.65294C6.1463 5.72465 6.97254 4.83916 7.88107 4.02937C8.79949 3.22947 9.7969 2.48552 10.8964 1.87983C11.9892 1.26756 13.1743 0.777082 14.412 0.461069C15.6431 0.141765 16.9269 -0.00637365 18.1976 0.000209946Z" fill="#8700CE"/>
</svg>
